<!DOCTYPE svg PUBLIC "-//W3C//DTD SVG 1.1//EN" "http://www.w3.org/Graphics/SVG/1.1/DTD/svg11.dtd">
<!-- Uploaded to: SVG Repo, www.svgrepo.com, Transformed by: SVG Repo Mixer Tools -->
<svg fill="#000000" version="1.1" id="Capa_1" xmlns="http://www.w3.org/2000/svg" xmlns:xlink="http://www.w3.org/1999/xlink" width="800px" height="800px" viewBox="0 0 589.905 589.905" xml:space="preserve" transform="matrix(-1, 0, 0, 1, 0, 0)">
<g id="SVGRepo_bgCarrier" stroke-width="0"/>
<g id="SVGRepo_tracerCarrier" stroke-linecap="round" stroke-linejoin="round"/>
<g id="SVGRepo_iconCarrier"> <g> <g> <path d="M99.127,330.362c-0.341-1.094-1.191-2.013-2.692-2.342c-0.599-0.132-1.185-0.227-1.767-0.31 c-0.472-0.389-0.959-0.761-1.467-1.108c-2.132-1.465-4.195-0.465-5.2,1.265c-6.363,1.354-10.655,6.34-11.19,13.967 c-0.307,1.728-0.419,3.537-0.305,5.396c0.416,6.736,4.203,14.783,10.277,18.59c1.648,1.338,3.475,2.43,5.483,3.158 C112.073,376.165,114.898,339.168,99.127,330.362z M86.293,351.334c-1.173-3.083-1.77-6.377-1.502-9.167 c0.883-3.204,3.155-5.65,6.926-6.052c0.095,0.05,0.191,0.097,0.293,0.14c0.225,0.295,0.428,0.606,0.631,0.92 C90.045,341.674,88.225,346.52,86.293,351.334z M87.406,353.852c2.024-4.935,3.831-9.956,6.38-14.634 c0.732,1.534,1.268,3.18,1.688,4.829c-2.377,3.822-4.612,7.738-7.126,11.476C88.018,354.982,87.699,354.43,87.406,353.852z M93.854,360.056c-0.664,0.383-2.083-0.557-3.076-1.32c-0.428-0.443-0.832-0.938-1.227-1.455c2.325-3.375,4.402-6.91,6.531-10.41 c0.047,0.263,0.104,0.529,0.146,0.788C96.738,350.802,97.224,358.115,93.854,360.056z"/> <path d="M87.015,281.551c1.678,0.04,3.318,0.361,4.969,0.666c1.921,0.354,5.068,1.028,6.245,1.574 c4.648,2.154,8.715-4.74,4.038-6.908c-4.541-2.105-10.257-3.214-15.252-3.332C81.852,273.43,81.864,281.43,87.015,281.551z"/> <path d="M343.119,296.913c15.304,6.328,54.419,16.336,55.062,10.145c0.483-4.641,0.007-9.335,0.856-13.938 c0.023-0.128,0.019-0.245,0.031-0.368c0.456-1.532,0.028-3.229-1.869-4.149c-15.838-7.687-33.603-10.394-51.02-11.546 c-1.43-0.095-2.444,0.464-3.077,1.312c-0.054,0.063-0.101,0.134-0.148,0.203c-0.047,0.073-0.094,0.146-0.135,0.224 c-0.209,0.347-0.389,0.731-0.496,1.198C341.527,283.445,338.372,294.95,343.119,296.913z M390.81,294.424 c-0.126,1.016-0.226,2.034-0.309,3.052c-0.576-1.284-1.125-2.583-1.677-3.875C389.488,293.872,390.155,294.133,390.81,294.424z M386.234,292.585c1.171,2.809,2.4,5.589,3.677,8.351c-0.734-0.209-1.47-0.414-2.205-0.617c-1.47-2.76-2.561-5.708-3.808-8.582 C384.682,292.004,385.458,292.297,386.234,292.585z M381.331,290.9c1.363,2.861,2.44,5.855,3.788,8.716 c-0.576-0.152-1.152-0.31-1.73-0.462c-1.484-2.772-2.67-5.703-3.562-8.719C380.329,290.583,380.829,290.744,381.331,290.9z M377.578,289.82c0.802,2.973,1.87,5.882,3.217,8.652c-0.084-0.021-0.167-0.044-0.25-0.065c-1.718-2.963-3.334-5.978-4.791-9.079 C376.366,289.481,376.969,289.657,377.578,289.82z M373.365,288.755c0.009,0.119,0.028,0.239,0.084,0.364 c1.327,2.937,2.815,5.786,4.395,8.59c-0.394-0.1-0.786-0.204-1.18-0.304c-1.056-2.978-2.414-5.833-3.662-8.736 C373.123,288.698,373.244,288.728,373.365,288.755z M370.629,288.162c1.205,2.901,2.584,5.731,3.704,8.662 c-0.605-0.149-1.213-0.304-1.819-0.454c-1.323-2.661-2.112-5.579-2.995-8.437C369.889,288.005,370.259,288.086,370.629,288.162z M367.292,287.52c0.888,2.743,1.628,5.577,2.738,8.236l-0.079-0.021c-1.835-2.602-3.072-5.573-4.325-8.511 C366.182,287.316,366.736,287.421,367.292,287.52z M363.309,286.863c1.22,2.774,2.358,5.587,3.872,8.188 c-0.477-0.119-0.953-0.235-1.431-0.354c-1.298-2.594-2.25-5.357-3.472-7.994C362.624,286.752,362.965,286.812,363.309,286.863z M359.897,286.375c1.291,2.487,2.227,5.142,3.357,7.7c-0.36-0.091-0.723-0.179-1.083-0.27c-1.325-2.227-2.089-5.027-2.959-7.524 C359.442,286.31,359.669,286.346,359.897,286.375z M357.02,286.021c0.889,2.227,1.586,4.821,2.614,7.142 c-0.153-0.04-0.31-0.078-0.465-0.118c-1.354-2.092-2.069-4.662-2.769-7.096C356.608,285.971,356.814,285.997,357.02,286.021z M354.256,285.725c0.664,2.201,1.289,4.529,2.274,6.636c-0.086-0.022-0.172-0.044-0.258-0.067 c-1.277-2.101-2.172-4.433-3.184-6.684C353.479,285.646,353.868,285.687,354.256,285.725z M350.797,285.408 c1.001,2.043,1.834,4.164,2.852,6.185c-0.261-0.07-0.521-0.138-0.78-0.209c-1.122-1.847-1.904-3.987-2.626-6.023 C350.426,285.374,350.612,285.392,350.797,285.408z M349.266,288.439c0.297,0.75,0.622,1.487,0.97,2.211 c-0.345-0.098-0.691-0.189-1.036-0.289C349.209,289.719,349.237,289.078,349.266,288.439z"/> <path d="M46.04,271.992l-3-18c-0.848-5.08-8.555-2.918-7.715,2.127l3,18C39.173,279.2,46.879,277.037,46.04,271.992z"/> <path d="M79.26,369.055C79.177,369.109,79.382,369.057,79.26,369.055L79.26,369.055z"/> <path d="M79.273,369.044c0,0-0.011,0.008-0.018,0.012h0.003C79.265,369.052,79.266,369.05,79.273,369.044z"/> <path d="M588.201,430.603c-2.677-2.012-7.349,0.037-10.072,0.928c-5.602,1.832-11.146,3.797-16.849,5.306 c-11.017,2.915-26.653,5.229-30.241-8.843c-0.439-1.725-1.853-2.66-3.438-2.839c5.619-7.521,10.235-15.874,14.375-24.161 c6.875-13.767,12.435-28.271,16.928-42.979c0.331-1.083,0.202-2.021-0.19-2.785c0.394-1.877-0.317-4.075-2.604-4.923 c-15.229-5.648-31.327-8.498-47.438-11.106c4.271-9.649,3.766-20.752,5.368-31.079c0.067-0.44,0.053-0.851,0.001-1.243 c-0.025-1.564-0.867-3.1-2.794-3.678c-10.118-3.033-25.404-11.978-35.472-4.699c-9.073,6.56-10.229,21.669-11.29,32.604 c-14.237-2.884-28.466-5.771-42.672-8.771c-4.881-13.921-8.733-28.16-12.773-42.339c-0.133-0.469-0.337-0.854-0.57-1.2 c-0.064-0.102-0.125-0.205-0.202-0.302c-0.04-0.048-0.086-0.087-0.128-0.133c-0.452-0.511-1.065-0.928-1.893-1.159 c-22.394-6.259-69.569-19.752-70.922-20.319c-1.291-5.308-1.839-10.614-3.285-15.887c-0.372-1.359-1.227-2.173-2.234-2.559 c-0.181-0.083-0.354-0.172-0.559-0.235c-11.226-3.469-22.782-5.23-34.419-6.551c4.855-21.271,8.332-42.869,10.354-64.592 c0.21-2.255-1.214-3.51-2.917-3.779c-14.156-15.082-35.303-18.218-55.083-20.221c-1.97-0.199-3.169,0.86-3.62,2.267 c-6.675,11.076-9.19,24.224-10.843,36.882c-1.703,13.043-2.246,26.174-3.324,39.271c-4.442-1.057-8.878-2.108-13.307-3.067 c-14.277-3.089-28.561-6.148-42.843-9.209c-0.063-0.014-0.122-0.01-0.185-0.021c-1.939-1.429-5.507-1.171-6.736,1.814 c-6.836,16.604-13.65,33.22-19.687,50.134c-9.196-1.775-18.41-3.416-27.646-4.781c-9.938-1.469-21.058-2.271-29.959-7.322 c-7.902-4.483-9.63-16.952-11.601-25.533c0.768-2.026,0.139-4.42-2.588-4.818c-18.602-2.714-37.43-1.596-56.085-3.625 c-2.771-0.302-4.015,1.899-3.784,4.073c-0.129,0.397-0.219,0.828-0.216,1.319c0.202,40.015,13.108,79.151,32.296,113.954 c8.717,15.812,16.924,31.923,25.942,47.566c4.535,7.866,9.403,15.54,14.769,22.869c2.629,3.593,5.426,7.063,8.344,10.424 c1.059,1.221,2.163,2.397,3.277,3.566c-11.545,2.153-25.085-3.849-32.477-13.442c-0.783-3.25-5.486-5.075-7.183-1.34 c-4.536,9.993-14.531,15.382-24.884,17.581c-9.22,1.958-21.357,0.741-27.208-7.581c-2.942-4.185-9.883-0.192-6.908,4.038 c14.202,20.199,49.119,13.98,62.747-4.656c11.297,11.493,29.138,17.12,43.304,11.53c1.423,0.278,2.94-0.201,3.859-1.862 c2.671-1.542,5.153-3.554,7.374-6.071c20.115,26.568,66.006,25.588,91.276,5.999c8.817,11.248,24.259,11.419,37.913,9.818 c8.037-0.94,15.149-3.374,22.858-5.707c10.119-3.062,16.237,6.241,24.657,10.12c19.924,9.179,56.15,11.78,70.257-8.563 c15.347,13.801,39.897,8.996,58.536,3.111c10.695,14.586,31.76,14.7,48.281,12.854c12.949-1.448,50.986-10.687,52.695-11.023 c5.03,12.194,17.869,14.526,30.563,12.688c6.667-0.967,13.157-3.03,19.528-5.156c2.487-0.83,4.962-1.697,7.463-2.484 c0.912-0.286,1.834-0.544,2.768-0.759C588.686,439.888,592.059,433.5,588.201,430.603z M505.835,309.847 c-0.206,1.956-0.364,3.946-0.526,5.947c-2.188-2.83-4.232-5.782-6.588-8.483C501.098,308.143,503.456,309.027,505.835,309.847z M494.239,305.847c0.466,0.136,0.925,0.292,1.388,0.438c-0.062,0.283-0.012,0.591,0.25,0.861 c3.431,3.545,6.089,7.716,9.187,11.522c-0.127,1.434-0.265,2.864-0.438,4.287c-4.721-5.879-8.98-12.12-13.604-18.08 C492.237,305.226,493.35,305.589,494.239,305.847z M487.863,304.102c5.662,7.033,10.642,14.593,16.381,21.56 c-0.282,1.766-0.636,3.506-1.099,5.206c-6.107-9.42-14.371-17.524-20.607-26.895C484.129,303.597,486.01,303.745,487.863,304.102z M485.37,328.377c0.271-0.354,0.508-0.762,0.669-1.257c0.455-1.394,0.86-2.804,1.25-4.219c3.464,4.978,7.014,9.889,10.842,14.589 c-2.042-0.335-4.085-0.668-6.119-1.018C489.48,334.04,487.353,331.269,485.37,328.377z M488.66,335.873 c-1.327-0.235-2.659-0.463-3.981-0.712c-0.087-0.16-0.175-0.32-0.262-0.479c-0.551-0.996-1.032-2.126-1.758-3.011 c-0.514-0.626-1.005-1.27-1.504-1.906c0.875,0.203,1.812,0.146,2.648-0.191C485.304,331.771,486.885,333.9,488.66,335.873z M487.958,320.394c0.367-1.424,0.727-2.852,1.081-4.273c0.021-0.083,0.023-0.159,0.039-0.238 c4.67,5.688,9.472,11.288,13.278,17.493c-0.483,1.376-1.044,2.722-1.726,4.019C496.1,331.96,491.986,326.21,487.958,320.394z M479.973,305.353c0.214-0.223,0.445-0.414,0.692-0.585c1.45,2.195,3.012,4.321,4.636,6.409c-1.1-0.092-2.211,0.22-3.005,1.038 c-1.219-1.746-2.447-3.484-3.694-5.208C479.026,306.425,479.48,305.868,479.973,305.353z M477.443,308.811 c1.29,1.792,2.562,3.596,3.824,5.408c-0.476,1.896-0.948,3.8-1.454,5.691c-1.413-2.115-2.889-4.181-4.516-6.122 C475.869,312.017,476.573,310.341,477.443,308.811z M474.639,316.116c1.604,2.009,3.063,4.135,4.479,6.294 c-0.252,0.865-0.514,1.729-0.793,2.583c-0.088,0.271-0.139,0.529-0.172,0.782c-1.449-2.001-2.867-4.025-4.299-6.042 C474.075,318.512,474.336,317.303,474.639,316.116z M473.418,322.468c2.826,3.727,5.952,7.441,8.262,11.394 c0.121,0.208,0.255,0.484,0.397,0.794c-0.628-0.123-1.259-0.239-1.885-0.367c-0.521-0.104-1.038-0.21-1.559-0.314 c-2.467-2.143-4.903-4.707-5.677-7.775C473.09,324.968,473.242,323.719,473.418,322.468z M472.563,330.194 c0.682,1.078,1.508,2.089,2.405,3.034c-0.882-0.179-1.764-0.358-2.646-0.537C472.403,331.888,472.483,331.049,472.563,330.194z M296.952,169.307c-0.039,0.398-0.084,0.796-0.124,1.194c-0.281-0.65-0.558-1.303-0.846-1.95c-0.066-0.152-0.143-0.305-0.22-0.457 C296.164,168.492,296.563,168.889,296.952,169.307z M292.636,165.283c0.078,1.271,0.689,2.414,1.261,3.537 c0.819,1.608,1.422,3.316,2.235,4.929c0.085,0.168,0.197,0.278,0.32,0.36c-0.173,1.575-0.354,3.149-0.542,4.724 c-2.667-4.585-4.061-10.179-5.685-15.4C291.046,164.016,291.847,164.639,292.636,165.283z M287.564,161.669 c2.348,6.777,3.877,14.43,7.966,20.225c-0.36,2.855-0.739,5.709-1.15,8.558c-4.288-9.934-6.524-20.678-10.414-30.786 C285.191,160.283,286.392,160.951,287.564,161.669z M281.329,158.427c4.457,10.899,6.743,22.627,11.476,33.396 c-0.931-0.746-1.892-1.45-2.907-2.071c-5.369-9.927-7.213-21.52-10.654-32.203C279.946,157.826,280.639,158.123,281.329,158.427z M276.888,156.671c0.01,0.05,0,0.094,0.018,0.147c3.461,10.268,5.275,21.432,9.931,31.291c-0.8-0.373-1.617-0.718-2.452-1.032 c-4.188-10.15-7.289-20.736-10.23-31.308C275.073,156.051,275.982,156.354,276.888,156.671z M271.895,155.118 c2.914,10.494,5.958,20.997,9.996,31.119c-0.926-0.276-1.861-0.532-2.816-0.747c-3.051-4.431-4.52-10.332-6.076-15.267 c-1.676-5.313-3.082-10.708-4.75-16.022C269.474,154.482,270.688,154.788,271.895,155.118z M266.003,153.712 c2.085,6.473,3.774,13.068,5.863,19.542c1.227,3.802,2.528,8.069,4.59,11.724c-0.894-0.148-1.796-0.276-2.708-0.379 c-3.679-10.731-7.318-21.491-12.24-31.722C263.015,153.127,264.514,153.407,266.003,153.712z M259.108,152.5 c5.075,10.255,8.758,21.084,12.459,31.893c-0.767-0.058-1.537-0.105-2.312-0.135c-3.875-11.12-9.933-21.309-14.091-32.307 C256.48,152.118,257.795,152.304,259.108,152.5z M249.366,151.283c1.188,0.125,2.377,0.257,3.57,0.396 c4.091,11.117,10.216,21.367,14.193,32.531c-0.822-0.005-1.645-0.001-2.469,0.022c-5.551-10.611-11.836-20.905-15.626-32.307 C249.146,151.712,249.25,151.494,249.366,151.283z M247.797,154.452c3.766,10.456,9.476,20.048,14.653,29.871 c-0.737,0.041-1.476,0.091-2.211,0.151c-5.681-7.646-9.11-17.022-13.94-25.143c-0.1-0.167-0.228-0.272-0.363-0.351 C246.5,157.446,247.121,155.935,247.797,154.452z M245.119,161.289c4.397,7.632,7.734,16.173,12.829,23.406 c-0.289,0.031-0.58,0.057-0.868,0.091c-5.362-5.91-8.752-13.713-12.883-20.512C244.482,163.272,244.793,162.278,245.119,161.289z M243.476,166.973c3.546,6.096,6.687,12.745,11.215,18.125c-0.978,0.141-1.948,0.295-2.91,0.463 c-3.621-4.155-6.39-8.938-9.438-13.525C242.679,170.338,243.057,168.649,243.476,166.973z M241.812,174.869 c2.458,3.789,4.833,7.632,7.704,11.11c-0.462,0.092-0.922,0.186-1.378,0.281c-2.38-2.931-4.527-6.037-6.712-9.118 C241.545,176.384,241.681,175.627,241.812,174.869z M241,179.991c1.615,2.283,3.238,4.559,4.971,6.752 c-0.425,0.099-0.848,0.198-1.266,0.301c-1.404-1.727-2.641-3.594-3.928-5.42C240.85,181.079,240.925,180.535,241,179.991z M240.167,186.663c0.078-0.706,0.16-1.415,0.245-2.126c0.712,1.029,1.427,2.057,2.185,3.049c-0.885,0.236-1.756,0.479-2.602,0.727 C240.054,187.763,240.104,187.213,240.167,186.663z M239.196,196.924c0.017-0.006,0.032-0.006,0.05-0.012 c15.005-4.889,43.313-10.266,53.085,6.49c-1.58,9.179-3.408,18.314-5.506,27.389c-10.229-1.036-20.477-1.953-30.579-3.593 c-6.35-1.03-12.683-2.408-19.003-3.875C238.003,214.531,238.48,205.718,239.196,196.924z M172.369,217.181 c26.636,5.707,53.271,11.418,79.864,17.313c23.974,5.313,48.912,3.994,72.646,10.779c1.548,6.268,2.021,9.573,3.967,15.736 c1.048,3.312,3.589,4.646,7.416,5.633c26.567,6.854,43.845,11.951,65.688,17.684c3.001,10.581,5.936,21.185,9.304,31.653 c-0.82-1.364-1.707-2.691-2.698-3.963c-0.792-1.018-2.196,0.409-1.414,1.414c1.61,2.065,2.936,4.312,4.114,6.637 c-1.787-0.39-3.574-0.783-5.36-1.177c-0.641-2.304-1.455-4.517-2.518-6.672c-0.568-1.157-2.294-0.145-1.727,1.01 c0.829,1.685,1.487,3.402,2.028,5.176c-0.958-0.212-1.917-0.417-2.874-0.631c-0.679-1.99-1.604-3.8-2.762-5.555 c-0.706-1.071-2.438-0.07-1.727,1.01c0.854,1.293,1.578,2.609,2.154,4.021c-1.613-0.36-3.229-0.719-4.845-1.084 c-0.833-1.257-1.438-2.693-2.251-3.947c-0.698-1.078-2.431-0.076-1.727,1.01c0.487,0.753,0.91,1.551,1.342,2.343 c-1.004-0.229-2.009-0.45-3.012-0.681c-0.402-1.028-0.812-2.055-1.169-3.101c-0.413-1.214-2.347-0.691-1.93,0.532 c0.233,0.687,0.493,1.362,0.756,2.036c-0.093-0.021-0.186-0.041-0.277-0.062c-0.576-0.135-1.151-0.269-1.729-0.401 c-0.792-1.768-1.845-3.396-2.922-5.011c-0.711-1.067-2.444-0.066-1.727,1.01c0.742,1.114,1.491,2.242,2.142,3.42 c-1.043-0.242-2.086-0.484-3.129-0.727c-0.725-1.43-1.651-2.747-2.776-3.905c-0.898-0.926-2.312,0.489-1.414,1.414 c0.562,0.577,1.059,1.209,1.513,1.87c-1.301-0.304-2.604-0.604-3.903-0.906c-0.634-1.414-1.202-2.861-2.038-4.176 c-0.688-1.084-2.421-0.082-1.727,1.01c0.526,0.829,0.946,1.712,1.346,2.604c-1.139-0.264-2.277-0.527-3.416-0.792 c-0.628-2.085-1.474-4.051-3.025-5.689c-0.889-0.938-2.3,0.479-1.413,1.414c1.036,1.096,1.685,2.384,2.171,3.75 c-1.723-0.4-3.445-0.8-5.167-1.199c-0.453-1.171-0.929-2.334-1.333-3.523c-0.413-1.214-2.347-0.692-1.93,0.531 c0.281,0.825,0.598,1.637,0.915,2.447c-1.071-0.249-2.145-0.497-3.217-0.746c-1.179-1.766-2.391-3.554-3.103-5.566 c-0.429-1.207-2.36-0.688-1.93,0.532c0.554,1.562,1.355,2.993,2.231,4.385c-1.845-0.429-3.691-0.856-5.537-1.284 c-0.727-1.848-1.753-3.531-2.867-5.204c-0.711-1.067-2.442-0.067-1.727,1.01c0.789,1.185,1.522,2.374,2.139,3.624 c-1.367-0.317-2.735-0.635-4.103-0.952c-0.992-1.672-1.91-3.387-2.977-5.015c-0.703-1.074-2.436-0.073-1.727,1.01 c0.721,1.102,1.375,2.243,2.028,3.385c-1.741-0.403-3.485-0.81-5.229-1.214c-0.339-0.846-0.675-1.693-1.073-2.515 c-0.562-1.159-2.288-0.146-1.727,1.01c0.151,0.313,0.292,0.635,0.43,0.955c-0.91-0.211-1.82-0.423-2.729-0.634 c-0.537-1.164-1.261-2.259-1.975-3.331c-0.711-1.067-2.443-0.067-1.727,1.01c0.371,0.558,0.768,1.133,1.138,1.727 c-1.363-0.314-2.727-0.634-4.09-0.948c-0.186-0.737-0.369-1.477-0.554-2.215c-0.313-1.251-2.242-0.721-1.93,0.531 c0.099,0.393,0.195,0.783,0.294,1.176c-0.553-0.128-1.104-0.256-1.655-0.384c-0.437-1.4-0.651-2.873-0.675-4.392 c-0.019-1.288-2.019-1.29-2,0c0.021,1.317,0.174,2.619,0.467,3.879c-0.979-0.228-1.955-0.453-2.934-0.68 c-0.33-0.924-0.647-1.851-0.9-2.799c-0.333-1.245-2.263-0.716-1.93,0.532c0.156,0.585,0.344,1.161,0.534,1.735 c-1.225-0.283-2.449-0.569-3.674-0.853c-0.142-0.812-0.217-1.641-0.229-2.482c-0.021-1.289-2.021-1.291-2,0 c0.01,0.67,0.057,1.337,0.136,1.998c-0.77-0.178-1.539-0.358-2.31-0.535c-0.308-1.182-0.468-2.398-0.493-3.463 c-0.03-1.288-2.03-1.291-2,0c0.023,0.945,0.14,1.955,0.339,2.965c-1.052-0.242-2.103-0.489-3.154-0.73 c-0.397-2.169-0.792-4.338-1.219-6.5c-0.25-1.265-2.178-0.729-1.929,0.531c0.36,1.823,0.694,3.652,1.027,5.48 c-1.079-0.248-2.157-0.498-3.235-0.745c-0.664-1.816-1.109-3.693-1.161-5.668c-0.034-1.287-2.034-1.29-2,0 c0.046,1.779,0.377,3.487,0.89,5.146c-1.449-0.331-2.897-0.668-4.347-0.998c-0.477-1.448-0.872-2.924-1.245-4.413 c-0.312-1.251-2.242-0.72-1.929,0.532c0.284,1.135,0.591,2.256,0.927,3.366c-1.869-0.426-3.736-0.859-5.605-1.283 c-0.58-1.49-1.053-3.023-1.393-4.615c-0.27-1.261-2.197-0.727-1.929,0.532c0.259,1.213,0.597,2.394,0.994,3.552 c-1.409-0.319-2.816-0.646-4.226-0.965c-0.815-1.756-1.43-3.617-2.274-5.358c-0.563-1.16-2.287-0.146-1.727,1.01 c0.599,1.234,1.08,2.528,1.601,3.803c-1.375-0.311-2.748-0.629-4.123-0.938c-0.682-1.376-1.252-2.803-1.65-4.303 c-0.33-1.245-2.26-0.717-1.928,0.532c0.292,1.102,0.682,2.169,1.123,3.214c-1.206-0.271-2.41-0.55-3.617-0.819 c-0.699-1.321-1.512-2.582-2.346-3.832c-0.711-1.067-2.443-0.067-1.727,1.01c0.49,0.736,0.982,1.479,1.453,2.235 c-1.104-0.246-2.208-0.496-3.312-0.742c-0.952-1.636-1.586-3.469-2.414-5.17c-0.564-1.159-2.289-0.145-1.727,1.01 c0.58,1.191,1.076,2.415,1.634,3.601c-0.497-0.11-0.994-0.223-1.491-0.333c-1.252-1.9-2.384-3.812-2.981-6.038 c-0.334-1.244-2.264-0.716-1.929,0.532c0.475,1.766,1.251,3.359,2.164,4.897c-1.166-0.258-2.332-0.521-3.5-0.777 c-0.896-2.1-1.598-4.285-2.836-6.225c-0.691-1.083-2.424-0.081-1.727,1.01c0.938,1.471,1.568,3.085,2.21,4.696 c-1.001-0.22-2-0.444-3.001-0.662c-0.539-1.573-0.975-3.181-1.382-4.805c-0.313-1.251-2.242-0.721-1.929,0.531 c0.319,1.274,0.661,2.533,1.049,3.776c-0.693-0.15-1.387-0.307-2.081-0.457c-0.667-1.659-1.492-3.254-2.474-4.757 c-0.701-1.075-2.434-0.073-1.727,1.01c0.678,1.038,1.279,2.114,1.803,3.225c-1.19-0.258-2.379-0.522-3.569-0.778 c-0.54-1.623-1.094-3.249-1.84-4.789c-0.562-1.161-2.286-0.146-1.727,1.01c0.513,1.059,0.916,2.169,1.295,3.287 c-0.917-0.197-1.831-0.4-2.747-0.596c-0.686-1.82-1.546-3.575-2.054-5.462c-0.335-1.244-2.265-0.716-1.929,0.531 c0.411,1.527,1.053,2.969,1.646,4.428c-1.068-0.228-2.134-0.464-3.203-0.689c-0.187-1.776-0.445-3.547-0.478-5.338 c-0.023-1.288-2.023-1.29-2,0c0.029,1.644,0.249,3.271,0.43,4.9c-0.941-0.199-1.88-0.406-2.822-0.604 c-0.334-1.52-0.668-3.038-0.977-4.562c-0.256-1.264-2.184-0.728-1.929,0.532c0.242,1.194,0.505,2.385,0.767,3.576 c-1.167-0.244-2.332-0.499-3.499-0.742c-0.371-1.809-0.778-3.611-1.339-5.366c-0.391-1.224-2.322-0.7-1.929,0.532 c0.459,1.438,0.817,2.907,1.138,4.386c-0.934-0.193-1.863-0.396-2.797-0.589c-0.169-1.573-0.352-3.145-0.377-4.729 c-0.02-1.289-2.02-1.291-2,0c0.023,1.441,0.18,2.872,0.334,4.303c-1.149-0.239-2.299-0.479-3.448-0.72 c-0.218-0.839-0.421-1.682-0.632-2.521c-0.264-1.056-0.506-2.244-1.213-3.103c-0.822-0.995-2.229,0.428-1.414,1.414 c0.492,0.598,0.604,1.841,0.786,2.567c0.099,0.396,0.194,0.791,0.29,1.188c-0.852-0.179-1.703-0.354-2.555-0.533 c-0.491-1.254-0.785-2.573-0.814-3.929c-0.028-1.287-2.028-1.29-2,0c0.025,1.188,0.233,2.339,0.562,3.459 c-0.476-0.101-0.951-0.198-1.427-0.298c-0.294-1.771-0.923-3.427-1.939-4.999c-0.697-1.078-2.43-0.076-1.727,1.01 c0.739,1.144,1.243,2.308,1.54,3.546c-0.545-0.115-1.09-0.227-1.635-0.342c-0.445-1.997-0.914-3.988-1.411-5.975 c-0.313-1.251-2.241-0.72-1.929,0.532c0.416,1.661,0.813,3.325,1.195,4.992c-1.029-0.216-2.059-0.432-3.088-0.648 c-0.508-1.847-1.041-3.687-1.512-5.543c-0.317-1.249-2.246-0.719-1.929,0.532c0.388,1.523,0.816,3.036,1.241,4.549 c-0.749-0.156-1.496-0.314-2.245-0.471c-0.386-2.198-0.562-4.431-1.067-6.61c-0.291-1.256-2.219-0.724-1.929,0.532 c0.431,1.858,0.616,3.756,0.899,5.639c-0.986-0.206-1.973-0.416-2.96-0.621c-0.003-0.072,0.009-0.138-0.011-0.216 c-0.572-2.253-1.266-4.463-2-6.667c-0.406-1.217-2.338-0.695-1.929,0.532c0.65,1.952,1.255,3.914,1.786,5.9 c-0.465-0.096-0.928-0.195-1.392-0.291c0.205-0.28,0.292-0.652,0.1-1.048c-0.62-1.276-1.157-2.729-1.196-4.161 c-0.037-1.287-2.037-1.291-2,0c0.047,1.683,0.614,3.327,1.324,4.846c-1.429-0.292-2.855-0.59-4.285-0.878 C160.047,247.349,166.175,232.249,172.369,217.181z M37.142,286.016c-0.761,0.806-1.317,1.729-1.771,2.71 c-0.412-1.163-0.812-2.329-1.206-3.498c0.855-1.552,1.582-3.175,2.548-4.667c0.703-1.086-1.029-2.088-1.727-1.01 c-0.632,0.978-1.16,2.011-1.689,3.044c-0.608-1.869-1.187-3.746-1.747-5.628c0.188-0.067,0.361-0.197,0.496-0.406 c1.246-1.927,2.088-4.073,3.334-6c0.702-1.087-1.029-2.088-1.727-1.01c-1.053,1.627-1.829,3.403-2.791,5.078 c-0.6-2.088-1.169-4.184-1.709-6.287c0.326,0.019,0.662-0.107,0.893-0.448c1.24-1.826,2.678-3.467,3.435-5.571 c0.437-1.218-1.496-1.736-1.929-0.532c-0.617,1.717-1.828,3.128-2.884,4.6c-0.692-2.804-1.313-5.625-1.892-8.455 c2.055-1.478,3.84-3.279,5.27-5.374c0.73-1.068-1.004-2.067-1.727-1.01c-1.096,1.604-2.457,3.03-3.988,4.231 c-0.484-2.5-0.919-5.011-1.31-7.53c1.925-1.329,3.252-3.172,4.868-4.822c0.903-0.922-0.51-2.337-1.414-1.414 c-1.28,1.308-2.381,2.787-3.787,3.958c-0.328-2.286-0.602-4.584-0.85-6.886c0.164-0.001,0.338-0.049,0.516-0.169 c2.045-1.386,3.794-3.082,5.535-4.823c0.914-0.912-0.501-2.326-1.414-1.414c-1.534,1.534-3.07,3.047-4.846,4.3 c-0.137-1.419-0.254-2.841-0.36-4.265c1.239-1.236,2.497-2.432,4.18-3.03c1.206-0.429,0.687-2.361-0.532-1.929 c-1.48,0.526-2.695,1.379-3.828,2.382c-0.137-2.23-0.234-4.466-0.283-6.71c15.648,1.319,31.438,0.639,47.031,2.569 c2.439,9.884,4.56,20.685,12.306,27.814c8.003,7.366,21.655,8.331,31.856,9.827c30.068,4.41,59.903,11.272,89.656,17.429 c63.311,13.101,125.999,28.656,189.001,43.114c29.325,6.729,58.787,12.539,88.291,18.396c23.208,4.607,47.431,6.615,69.915,14.344 c-4.1,13.243-9.105,26.202-15.135,38.689c-0.55,1.137-1.111,2.272-1.682,3.41c-0.426-0.312-0.958-0.545-1.617-0.659 c-64.484-11.188-128.178-25.624-191.708-41.267c-63.379-15.605-126.865-30.453-190.766-43.783 c-18.957-3.955-37.908-7.046-57.068-9.835c-19.038-2.771-38.087-6.07-56.189-12.759c0.439-1.196,0.976-2.354,1.858-3.29 C39.44,286.492,38.029,285.076,37.142,286.016z M39.751,300.248c0.972,0.322,1.95,0.619,2.926,0.926 c-0.138,0.082-0.265,0.193-0.358,0.379c-0.359,0.718-0.731,1.41-1.156,2.067C40.688,302.498,40.211,301.376,39.751,300.248z M515.247,427.429c-13.246,2.993-26.317,6.744-39.802,8.743c-14.941,2.217-37.92,4.275-46.81-11.135 c-0.86-1.492-2.833-2.394-4.518-1.838c-16.26,5.368-43.904,13.396-56.482-3.162c-2.207-2.904-5.916-2.386-7.312,0.956 c-4.863,11.646-19.574,14.366-30.756,14.731c-12.221,0.397-26.134-1.642-36.367-8.706c-6.113-4.222-12.83-10.117-20.849-8.663 c-6.937,1.257-13.353,4.924-20.335,5.855c-13.063,1.746-30.941,4.73-38.382-9.175c-1.256-2.346-4.46-2.507-6.282-0.81 c-21.842,20.35-69.569,22.267-85.718-6.19c-1.502-2.646-5.382-2.54-6.908,0c-1.962,3.267-4.399,5.732-7.133,7.521 c-0.342-0.284-0.676-0.566-1.001-0.854c0.041-0.044,0.082-0.089,0.118-0.144c1.185-1.776,2.35-3.595,3.844-5.132 c0.899-0.925-0.514-2.341-1.414-1.413c-1.537,1.58-2.762,3.44-3.98,5.271c-1.12-1.166-2.21-2.359-3.274-3.576 c0.227,0.001,0.461-0.074,0.669-0.282c1.823-1.821,3.673-3.695,6.226-4.408c1.24-0.348,0.713-2.276-0.532-1.93 c-2.896,0.811-5.032,2.851-7.107,4.925c-0.163,0.162-0.231,0.342-0.263,0.521c-0.499-0.585-1.01-1.16-1.501-1.752 c1.556-2.074,3.112-4.149,4.667-6.224c0.775-1.033-0.963-2.027-1.727-1.011c-1.413,1.886-2.826,3.77-4.239,5.653 c-0.081-0.1-0.163-0.197-0.243-0.296c-0.416-0.514-0.813-1.044-1.221-1.564c0.033-0.036,0.066-0.071,0.097-0.115 c1.24-1.826,2.678-3.469,3.435-5.572c0.438-1.217-1.496-1.736-1.929-0.532c-0.615,1.712-1.822,3.121-2.876,4.588 c-0.854-1.132-1.691-2.275-2.514-3.433c0.279-0.086,0.529-0.276,0.651-0.623c0.635-1.8,1.997-3.025,3.54-4.069 c1.062-0.719,0.062-2.451-1.01-1.727c-1.881,1.272-3.428,2.755-4.29,4.853c-0.716-1.031-1.424-2.069-2.12-3.115 c1.396-1.967,3.082-3.709,4.445-5.702c0.731-1.067-1.003-2.066-1.727-1.01c-1.186,1.732-2.613,3.28-3.886,4.947 c-0.766-1.176-1.526-2.354-2.272-3.541c0.892-2.14,2.334-4.446,4.621-5.271c1.203-0.434,0.685-2.367-0.532-1.929 c-2.497,0.897-4.156,2.919-5.329,5.198c-0.75-1.214-1.494-2.43-2.229-3.647c0.393-0.38,0.791-0.754,1.205-1.111 c0.508-0.438,1.246-1.098,1.952-1.143c1.28-0.08,1.288-2.08,0-2c-1.622,0.103-3.02,1.275-4.22,2.461 c-0.312-0.532-0.627-1.062-0.938-1.596c0.007-0.012,0.016-0.016,0.021-0.026c0.382-0.755,0.808-1.486,1.246-2.208 c0.237-0.392,0.483-0.778,0.742-1.156c0.062-0.09,0.109-0.157,0.159-0.224c0.391-0.091,0.706-0.389,0.656-0.917 c-0.065-0.684-0.598-1.25-1.332-1.048c-0.514,0.142-0.838,0.656-1.128,1.062c-0.57,0.793-1.071,1.647-1.544,2.513 c-0.945-1.642-1.877-3.288-2.804-4.94c0.327-0.061,0.633-0.255,0.771-0.652c0.228-0.652,0.54-1.3,0.97-1.847 c0.188-0.24,0.403-0.456,0.635-0.654c-0.014,0.012,0.132-0.076,0.172-0.101c-0.018-0.001-0.041,0-0.074,0.002 c1.279-0.088,1.289-2.088,0-2c-1.701,0.117-2.82,2.02-3.429,3.534c-0.759-1.367-1.528-2.729-2.277-4.102 c1.316-1.424,2.513-3.312,4.212-4.236c1.132-0.616,0.123-2.345-1.01-1.728c-1.701,0.927-2.918,2.638-4.207,4.104 c-0.646-1.193-1.293-2.387-1.934-3.581c0.231,0.004,0.472-0.072,0.686-0.286l2-2c0.912-0.912-0.502-2.326-1.414-1.414l-2,2 c-0.047,0.047-0.063,0.099-0.099,0.147c-0.923-1.729-1.845-3.458-2.764-5.188c0.167-0.076,0.323-0.196,0.433-0.414 c0.692-1.383,1.424-2.681,2.51-3.798c0.9-0.924-0.514-2.34-1.414-1.414c-1.068,1.099-1.854,2.354-2.555,3.692 c-0.818-1.545-1.639-3.09-2.46-4.633c1.159-2.264,2.509-4.399,3.919-6.515c0.717-1.077-1.016-2.077-1.727-1.01 c-1.177,1.766-2.307,3.549-3.324,5.403c-0.705-1.318-1.41-2.638-2.121-3.953c1.008-1.188,1.925-2.455,3.016-3.572 c0.9-0.923-0.513-2.338-1.414-1.414c-0.947,0.971-1.768,2.052-2.625,3.099c-0.334-0.613-0.663-1.229-0.999-1.843 c0.839-1.352,1.651-2.717,2.527-4.044c0.714-1.08-1.02-2.08-1.727-1.01c-0.66,1-1.28,2.021-1.903,3.045 c-0.238-0.431-0.47-0.862-0.709-1.291c-0.544-0.979-1.075-1.962-1.607-2.945c0.652-1.092,1.543-2.016,2.457-2.93 c0.912-0.913-0.502-2.327-1.414-1.414c-0.764,0.764-1.483,1.535-2.104,2.373c-0.596-1.117-1.188-2.235-1.773-3.357 c0.798-1.259,1.578-2.53,2.624-3.602c0.901-0.923-0.513-2.338-1.414-1.414c-0.876,0.897-1.583,1.922-2.261,2.968 c-0.522-1.02-1.059-2.032-1.57-3.058c1.097-1.265,2.074-2.631,3.245-3.829c0.901-0.923-0.512-2.339-1.414-1.414 c-1.007,1.031-1.868,2.188-2.786,3.297c-0.383-0.778-0.771-1.554-1.146-2.335c1-1.43,1.874-2.949,2.836-4.417 c0.711-1.082-1.021-2.083-1.727-1.01c-0.721,1.099-1.384,2.231-2.097,3.33c-0.521-1.104-1.05-2.2-1.558-3.31 c0.363-0.528,0.784-1.021,1.225-1.477c0.898-0.926-0.514-2.342-1.414-1.414c-0.261,0.269-0.508,0.551-0.746,0.839 c-0.56-1.244-1.104-2.495-1.646-3.747c0.773-0.989,1.392-2.071,1.963-3.213c0.182-0.36,0.121-0.699-0.045-0.972 c24.943,7.603,51.201,9.849,76.871,14.092c31.558,5.217,62.932,12.765,94.146,19.727c63.671,14.202,126.776,30.729,190.316,45.481 c41.391,9.608,83.103,17.926,124.968,25.188c0.014,0.002,0.023,0,0.036,0.003C526.1,413.738,521.204,421.099,515.247,427.429z"/> <path d="M395.254,354.707c5.832-2.888,7.991-9.302,6.958-15.418c-0.993-5.883-6.033-9.499-11.539-10.186 c-1.425-1.269-3.602-1.645-5.319,0.124c-4.529,4.659-9.658,11.886-8.312,18.785C378.566,355.833,388.952,357.828,395.254,354.707z M391.804,347.51c-1.068,0.634-3.146,0.896-4.757,0.495c2.485-1.532,5.055-2.931,7.461-4.574 C394.241,345.097,393.294,346.625,391.804,347.51z M389.113,336.988c1.226,0.054,2.338,0.324,3.244,0.928 c-2.378,2.023-4.771,4.031-7.193,6.003C385.874,341.404,387.401,339.04,389.113,336.988z M393.718,339.375 c0.255,0.419,0.479,0.887,0.644,1.443c0.023,0.083,0.03,0.168,0.051,0.252c-2.916,2.169-6.179,3.827-9.252,5.774 c-0.054-0.081-0.109-0.161-0.15-0.251C387.952,344.234,390.846,341.818,393.718,339.375z"/> <path d="M335.303,342.055c8.235,14.593,31.699,0.729,25.908-13.877c-3.188-8.042-12.193-11.363-19.77-7.36 c-6.783,3.584-8.779,11.564-6.544,18.314C334.652,340.017,334.72,341.02,335.303,342.055z M353.972,331.645 c1.534,4.911-6.062,10.531-10.203,8.019c-0.044-0.212-0.103-0.425-0.182-0.641c3.591-2.264,6.795-5.122,10.354-7.461 C353.951,331.591,353.963,331.616,353.972,331.645z M344.879,328.095c1.646-1.167,3.467-1.327,5.065-0.769 c-2.63,1.647-5.253,3.308-7.872,4.973C342.397,330.694,343.294,329.218,344.879,328.095z M351.896,328.463 c0.435,0.372,0.825,0.81,1.161,1.301c-3.554,2.345-6.744,5.254-10.338,7.511c-0.369-0.835-0.612-1.698-0.722-2.558 C345.289,332.617,348.588,330.533,351.896,328.463z"/> <path d="M297.596,337.084c1.538,1.129,3.049,0.893,4.141-0.005c4.81,1.198,9.776-2.16,12.972-6.339 c4.968-6.498,4.367-15.3-2.154-20.293c-6.796-5.202-16.614-2.405-20.366,4.871C288.26,322.935,290.866,332.144,297.596,337.084z M303.156,329.021c-0.679-0.641-1.419-0.973-2.154-1.073c2.883-2.443,5.954-4.646,9.047-6.829 C309.799,325.486,305.042,330.805,303.156,329.021z M304.402,315.913c-1.792,1.238-3.526,2.566-5.307,3.829 C300.03,317.489,301.875,315.852,304.402,315.913z M298.432,322.605c2.942-1.93,5.661-4.192,8.636-6.062 c0.239,0.104,0.481,0.221,0.729,0.353c0.956,0.511,1.566,1.212,1.909,2.022c-3.627,2.559-7.242,5.118-10.593,8.021 C298.538,325.572,298.327,324.061,298.432,322.605z"/> <path d="M251.441,325.804c0.406,0.417,0.918,0.771,1.564,1.009c17.479,6.469,32.553-22.571,13.074-29.84 C248.231,290.311,233.12,318.5,251.441,325.804z M256.933,319.476c-0.393-0.312-0.865-0.568-1.443-0.733 c-0.971-0.276-1.779-0.657-2.445-1.116c4.971-2.656,9.838-5.494,14.591-8.522C267.758,313.7,262.307,319.859,256.933,319.476z M266.227,305.928c0.371,0.339,0.686,0.707,0.903,1.12c-5.058,3.243-10.246,6.269-15.55,9.09c-0.255-0.402-0.439-0.837-0.56-1.299 C256.218,312.088,261.273,309.095,266.227,305.928z M251.832,309.938c2.347-4.683,7.195-6.711,12.122-5.253 c0.117,0.035,0.211,0.086,0.322,0.124c-4.354,2.759-8.795,5.37-13.336,7.81C251.069,311.774,251.362,310.876,251.832,309.938z"/> <path d="M205.605,315.159c0.166,0.471,0.418,0.935,0.8,1.373c5.812,6.69,14.809,1.984,18.984-3.908 c6.024-8.502,0.506-18.272-7.673-22.542c-7.329-3.826-15.562-1.407-17.918,6.869C197.927,303.534,200.698,310.63,205.605,315.159z M218.021,300.054c1.706,2.021,2.475,4.614,1.191,7.295c-0.758,1.584-2.852,4.031-4.84,4.378c-0.272-0.28-0.584-0.545-0.985-0.766 c-2.408-1.321-4.196-3.271-5.196-5.64C211.474,303.575,214.713,301.748,218.021,300.054z M212.25,296.45 c0.266,0.068,0.528,0.162,0.791,0.253c-1.884,0.917-3.776,1.82-5.64,2.783C207.827,297.105,209.419,295.714,212.25,296.45z M207.687,301.586c2.521-1.333,5.109-2.528,7.661-3.795c0.4,0.244,0.79,0.507,1.156,0.795c-2.998,1.553-5.944,3.202-8.922,4.795 c-0.121-0.548-0.202-1.111-0.25-1.688C207.448,301.677,207.565,301.65,207.687,301.586z"/> <path d="M155.856,303.96c0.194,0.286,0.425,0.566,0.731,0.829c14.686,12.575,33.141-15.088,17.85-25.568 c-7.557-5.18-16.516-2.971-21.188,4.73C149.476,290.171,149.629,299.568,155.856,303.96z M162.761,299.513 c-0.28-0.61-0.77-1.161-1.49-1.597c3.741-2.218,7.309-4.718,10.966-7.077C171.958,295.99,166.764,302.074,162.761,299.513z M159.809,288.636c1.812-3.795,5.016-5.06,8.539-3.647c-3.105,1.646-6.033,3.663-9.17,5.287 C159.357,289.698,159.567,289.14,159.809,288.636z M158.705,292.708c4.03-1.937,7.681-4.648,11.697-6.556 c0.81,0.671,1.335,1.516,1.608,2.465c-4.137,2.63-8.137,5.477-12.375,7.938C158.849,295.491,158.61,294.114,158.705,292.708z"/> <path d="M310.188,275.514c2.751-5.926,3.266-12.31,3.749-18.743c0.387-5.148-7.616-5.111-8,0 c-0.369,4.909-0.55,10.165-2.656,14.705C301.124,276.123,308.018,280.19,310.188,275.514z"/> <path d="M290.665,273.855c-0.902-5.637,0.179-11.479,0.855-17.084c0.617-5.114-7.391-5.055-8,0 c-0.779,6.461-1.607,12.73-0.568,19.211C283.766,281.066,291.474,278.901,290.665,273.855z"/> <path d="M269.314,269.221c1.864-6.7,2.58-13.693,2.634-20.634c0.04-5.161-7.96-5.157-8,0c-0.049,6.265-0.665,12.458-2.348,18.507 C260.216,272.074,267.934,274.184,269.314,269.221z"/> <path d="M248.677,266.019c2.053-5.248,1.853-10.897,2.847-16.368c0.917-5.043-6.792-7.197-7.714-2.127 c-0.992,5.458-0.805,11.145-2.847,16.368C239.081,268.702,246.819,270.767,248.677,266.019z"/> <path d="M224.896,264.542c1.906,0.524,4.6-0.634,4.92-2.794c0.758-5.102,1.828-10.152,2.278-15.297c0.45-5.142-7.554-5.098-8,0 c-0.388,4.428-1.341,8.778-1.991,13.17C221.784,261.777,222.605,263.912,224.896,264.542z"/> <path d="M208.468,259.258c1.708-5.448,2.141-11.139,3.202-16.725c0.958-5.04-6.751-7.191-7.714-2.127 c-1.062,5.586-1.494,11.276-3.202,16.725C199.206,262.068,206.931,264.163,208.468,259.258z"/> <path d="M189.252,251.074c1.304-5.629,1.503-11.401,2.49-17.08c0.879-5.044-6.83-7.202-7.713-2.127 c-0.988,5.676-1.189,11.461-2.492,17.08C180.375,253.967,188.088,256.099,189.252,251.074z"/> </g> </g> </g>
</svg>